<svg xmlns="http://www.w3.org/2000/svg" viewBox="0 0 640 420" role="img" aria-labelledby="title desc">
  <title id="title">Офисное кресло</title>
  <desc id="desc">Светлая иллюстрация офисного кресла для категории без фотографии</desc>
  <defs>
    <linearGradient id="bg" x1="0" y1="0" x2="1" y2="1">
      <stop offset="0" stop-color="#fffaf5"/>
      <stop offset="1" stop-color="#f3f7fb"/>
    </linearGradient>
    <linearGradient id="seat" x1="0" y1="0" x2="1" y2="1">
      <stop offset="0" stop-color="#20242a"/>
      <stop offset="1" stop-color="#4b5563"/>
    </linearGradient>
  </defs>
  <rect width="640" height="420" rx="28" fill="url(#bg)"/>
  <circle cx="525" cy="88" r="55" fill="#ffedd5"/>
  <circle cx="103" cy="342" r="76" fill="#eaf2ff"/>
  <path d="M248 85c0-22 18-40 40-40h64c22 0 40 18 40 40v127H248V85Z" fill="url(#seat)"/>
  <rect x="229" y="196" width="182" height="69" rx="31" fill="#252a31"/>
  <path d="M244 223h-48c-14 0-24 11-24 24v31M396 223h48c14 0 24 11 24 24v31" fill="none" stroke="#4b5563" stroke-width="14" stroke-linecap="round"/>
  <path d="M320 263v75M320 338l-102 35M320 338l102 35M320 338h-1" fill="none" stroke="#374151" stroke-width="15" stroke-linecap="round"/>
  <circle cx="214" cy="378" r="13" fill="#1f2937"/>
  <circle cx="426" cy="378" r="13" fill="#1f2937"/>
  <circle cx="320" cy="380" r="13" fill="#1f2937"/>
  <path d="M272 94h96M272 125h96M272 156h96" stroke="#6b7280" stroke-width="8" stroke-linecap="round" opacity=".62"/>
  <rect x="476" y="288" width="92" height="10" rx="5" fill="#fdba74"/>
  <rect x="500" y="298" width="44" height="58" rx="6" fill="#fff" stroke="#fed7aa" stroke-width="4"/>
</svg>
